<svg id="Layer_1" data-name="Layer 1" xmlns="http://www.w3.org/2000/svg" viewBox="0 0 417.17 403.59"><defs><style>.cls-1{fill:#fff;}</style></defs><path class="cls-1" d="M525.26,427.53c-44.58-48.25-51.63-128.11-18.44-196.29,34.74-71.33,112.89-115.19,193.54-108.61,93.32,7.62,169.12,69,195.12,158,22.4,76.68-4.39,156.88-69.57,207.05-33.4,25.71-71.74,38.8-113.61,37.8-10.77-.26-29-9.1-30.41-16.58-3.55-18.27,14.07-19.57,27.77-20.14,45.7-1.9,85.39-17.28,115.79-52.27C864.87,391.15,876.58,338.9,857,282c-21.86-63.68-67.69-103.52-133.22-117.36-107.7-22.75-196,48.44-198.44,158.3C524.61,357.38,525.26,391.82,525.26,427.53Z" transform="translate(-486.1 -121.98)"/><path class="cls-1" d="M584.88,488.23c-29-11.31-38.77-29.27-38.13-55.78.81-33.87-1.56-67.81-1.66-101.73-.24-84.25,48.82-141,129.8-150.89,71.73-8.76,145.39,42.75,164.56,115.07,23.38,88.17-37.25,170.93-128.71,173.5-10.2.29-20.74-11.09-31.12-17,8.81-6.59,17-17.74,26.52-19,60.67-8,104.45-53.83,100.2-107.52C801.52,264.07,746.73,215.32,686,217.76c-60,2.41-100.92,46.2-101.1,108.61C584.75,379.43,584.88,432.48,584.88,488.23Z" transform="translate(-486.1 -121.98)"/><path class="cls-1" d="M648.17,517.23c-29.39-1.29-40.95-12.9-40.25-41.62,1.22-49.32-1.89-98.73-2.91-148.11-1-47.41,28.09-81.86,74.43-88.73,43.69-6.48,90,22.89,101.61,64.45,12,43-8.86,86.11-50.06,102-8,3.08-17.67,6.91-25.11,4.92-9.6-2.55-17.73-10.62-26.49-16.31,7.13-7.4,13-18.69,21.61-21.5,33.41-10.89,46.47-26,42.31-54.45-3.43-23.41-27.7-43.09-51.81-42-26.5,1.2-46.39,21.59-46.59,53.21-.32,52.27,2.07,104.57,3.22,156.85C648.36,496.26,648.17,506.59,648.17,517.23Z" transform="translate(-486.1 -121.98)"/></svg>